# xmcd
#
# Track frame offsets:
#	151
#	18790
#	33899
#	49008
#	63973
#	78930
#	94197
#	106762
#	119857
#	134220
#
# Disc length: 2030 seconds
#
# Revision: 1
# Processed by: cddbd v1.5.1PL0 Copyright (c) Steve Scherf et al.
# Submitted via: EasyCDDAExtractor 7.0.6.1
#
DISCID=7f07ec0a
DTITLE=Various Artist - Lupita D'alessio y Artistas Varios - CD3
DYEAR=2003
DGENRE=Ballad
TTITLE0=Lupita D'alessio - Mentiras
TTITLE1=Palito Ortega - Prometimos no llorar
TTITLE2=Lupita D'alessio - Como decirte que me voy
TTITLE3=Reynaldo Obregón - Sangre de vino
TTITLE4=Lupita D'alessio - Yo quiero un hombre
TTITLE5=Enrique Guzmán - Con y por amor
TTITLE6=Lupita D'alessio - Culpable
TTITLE7=Javier Santos - No pongas ese disco
TTITLE8=Lupita D'alessio - Muy tu libertad, muy mi soledad
TTITLE9=Los Angeles Negros - Y volvere
EXTD=
EXTT0=
EXTT1=
EXTT2=
EXTT3=
EXTT4=
EXTT5=
EXTT6=
EXTT7=
EXTT8=
EXTT9=
PLAYORDER=
